<svg xmlns="http://www.w3.org/2000/svg" viewBox="0 0 448 512"><!--!Font Awesome Free 6.6.0 by @fontawesome - https://fontawesome.com License - https://fontawesome.com/license/free Copyright 2024 Fonticons, Inc.--><path d="M352 320c-22.6 0-43.4 7.8-59.8 20.9l-102.5-64.1a96.6 96.6 0 0 0 0-41.7l102.5-64.1C308.6 184.2 329.4 192 352 192c53 0 96-43 96-96S405 0 352 0s-96 43-96 96c0 7.2 .8 14.1 2.3 20.8L155.8 180.9C139.4 167.8 118.6 160 96 160c-53 0-96 43-96 96s43 96 96 96c22.6 0 43.4-7.8 59.8-20.9l102.5 64.1A96.3 96.3 0 0 0 256 416c0 53 43 96 96 96s96-43 96-96-43-96-96-96z"/></svg>